<svg xmlns="http://www.w3.org/2000/svg" width="128" height="128"><g stroke-width="2" transform="translate(8 72)"><g><path fill="#94664F" d="M11 16q-1.21-.85-1-3Q13-21 14-56h3v72m-4-34q-6-12-10-30l1 0q5 18 10 29m-8-19q-3-3-5-6 0-1 5 4"/><path fill="#653D25" d="M17-38q4-10 5-27l1 0q-1 17-6 31M17-26l5-2q1-3 1-5 4-1 5-6l1 0q-1 5-5 7 0 2-1 5l-6 2"/><path fill="#754D2F" d="M15-64Q17-4 15 16h4q2.25-.35 2-3Q17-32 17-56"/><path d="M15-61l-5-1M15-52l2 3M21-59l3-1M21-66l-3 0M10-67l-2-1M8-61l-1 2M13-49l0 2M5-45l-3 0M-1-49l-1-1M-1-54l2-2M2-61l-1-2M27-39l2-2M35-37l1-3M26-47l4 1" stroke="#7F8D3C" fill="none" stroke-linecap="round" stroke-linejoin="round" stroke-width="5" stroke-opacity=".9"/><path d="M14-58l-5-1M13-65l2-1M19-63l2 0M19-55l0-2M3-65l-5 1M7-56l-3 2M11-51l3 1M25-67l2 3M-3-59l-1 4M27-43l-2 1M26-34l5 0M32-40l1 1M35-43l2 0" stroke="#627E25" fill="none" stroke-linecap="round" stroke-linejoin="round" stroke-width="5" stroke-opacity=".9"/><path d="M13-55l-5-1M1-52l2 4M0-58l5-2M5-64l2-3M17-59l1 2M11-63l2-1M21-53l1-2M26-62l3 1M21-38l2 1M30-37l1-3M32-46l2 1" stroke="#56882C" fill="none" stroke-linecap="round" stroke-linejoin="round" stroke-width="5" stroke-opacity=".9"/></g></g></svg>