<svg xmlns="http://www.w3.org/2000/svg" width="192" height="128"><clipPath id="clip"><path d="M16 0l16 8-16 8-16-8"/></clipPath><g stroke-width="2"><g><path d="M0 8l16 8 16-8-16-8" fill="#32332F"/></g><g transform="translate(32)"><path d="M0 8l16 8 16-8-16-8" fill="#32332F"/><path d="M8 12l8-4" stroke="#FFF" stroke-linecap="round" stroke-dasharray="3,3" stroke-dashoffset="-1.5" fill="none" stroke-linejoin="round"/></g><g transform="translate(64)"><path d="M0 8l16 8 16-8-16-8" fill="#32332F"/><path d="M8 12l16-8" stroke="#FFF" stroke-linecap="round" stroke-dasharray="3,3" stroke-dashoffset="-1.5"/></g><g transform="translate(96)"><path d="M0 8l16 8 16-8-16-8" fill="#32332F"/><path d="M8 12l8-4 8 4" stroke="#FFF" stroke-linecap="round" stroke-dasharray="3,3" stroke-dashoffset="-1.5" fill="none" stroke-linejoin="round"/></g><g transform="translate(128)"><path d="M0 8l16 8 16-8-16-8" fill="#32332F"/><path d="M8 12l8-4-8-4 16 8" stroke="#FFF" stroke-linecap="round" stroke-dasharray="3,3" stroke-dashoffset="-1.5" fill="none" stroke-linejoin="round"/></g><g transform="translate(160)"><path d="M0 8l16 8 16-8-16-8" fill="#32332F"/><path d="M24 4l-16 8 8-4-8-4 16 8" stroke="#FFF" stroke-linecap="round" stroke-dasharray="3,3" stroke-dashoffset="-1.5" fill="none" stroke-linejoin="round"/></g></g><g stroke-width="1.8" transform="translate(0 16)"><g><path d="M0 8l16 8 16-8-16-8" fill="#32332F"/><path d="M10 10q6 3 12 0l-6-9" fill="#A75F20"/><path d="M10 10q6 3 12 0" fill="none" stroke="#FFF" stroke-dasharray="11.5,10" stroke-dashoffset="-0.5" stroke-linecap="round"/></g><g transform="translate(32)" clip-path="url(#clip)"><path d="M0 8l16 8 16-8-16-8" fill="#32332F"/><path d="M5 12l8-4M9 13l7-3.5" stroke="#FFF" stroke-linecap="round" fill="none" stroke-linejoin="round"/></g><g transform="translate(64)" clip-path="url(#clip)"><path d="M0 8l16 8 16-8-16-8" fill="#32332F"/><path d="M9 13l18-9" stroke="#FFF" stroke-linecap="round"/><path d="M5 12l18-9" stroke="#FFF" stroke-linecap="round"/></g><g transform="translate(96)" clip-path="url(#clip)"><path d="M0 8l16 8 16-8-16-8" fill="#32332F"/><path d="M5 12l11-5.5 11 5.5M9 13l7-3.5 7 3.5" stroke="#FFF" stroke-linecap="round" fill="none" stroke-linejoin="round"/></g><g transform="translate(128)" clip-path="url(#clip)"><path d="M0 8l16 8 16-8-16-8" fill="#32332F"/><path d="M5 12l8-4-8-4M9 13l7-3.5 7 3.5M9 3l18 9" stroke="#FFF" stroke-linecap="round" fill="none" stroke-linejoin="round"/></g><g transform="translate(160)" clip-path="url(#clip)"><path d="M0 8l16 8 16-8-16-8" fill="#32332F"/><path d="M5 12l8-4-8-4M9 13l7-3.5 7 3.5M9 3l7 3.5 7-3.5M27 12l-8-4 8-4" stroke="#FFF" stroke-linecap="round" fill="none" stroke-linejoin="round"/></g></g><g transform="translate(0 32)"><g><path d="M0 8l16 8 16-8-16-8" fill="#7F7B7B"/></g><g transform="translate(32)"><path d="M0 8l16 8 16-8-16-8" fill="#32332F"/><path d="M0 8l4 2q3-2 0-4" fill="#7F7B7B"/></g><g transform="translate(64)"><path d="M0 8l16 8 16-8-16-8" fill="#32332F"/><path d="M0 8l4 2 16-8-4-2" fill="#7F7B7B"/></g><g transform="translate(96)"><path d="M0 8l16 8 16-8-16-8" fill="#32332F"/><path d="M0 8l4 2 10-5q2-1 4 0l10 5 4-2-16-8" fill="#7F7B7B"/></g></g><g transform="translate(0 48)"><g><path d="M0 8l16 8 16-8-16-8M32 8l16 8 16-8-16-8M64 8l16 8 16-8-16-8M96 8l16 8 16-8-16-8" fill="#79B030"/><path d="M39 9c-1-1 1-2 3-1 0-2 2 0 2 1M74 6c-1-2 3 0 3 1M81 11c-1-2 3-1 2 1 0-3 3-3 2-2M116 11c-1-1 2-1 1 1" fill="none" stroke="#398545" stroke-linecap="round" stroke-linejoin="round" stroke-width="2"/><path fill="#276819" transform="translate(128)" d="M0 8l16 8 16-8-16-8"/></g><path d="M107 6c-2 1-1-2 1-1 2-1 2 1 1 1 2 2-2 3-1.99.44" fill="#FF0" stroke="#855370" stroke-linecap="round" stroke-linejoin="round" stroke-width="2"/></g><g transform="translate(0 64)"><path d="M0 8l16 8 16-8-16-8" fill="#926337"/><g transform="translate(32)"><path d="M0 8l16 8 16-8-16-8" fill="#926337"/><path d="M8 12l3-1 3-2 4 0 6 3-8 4" fill="#79B030"/></g><g transform="translate(64)"><path d="M0 8l16 8 16-8-16-8" fill="#926337"/><path d="M8 12l5-2 5-4 6-2 8 4-16 8" fill="#79B030"/></g><g transform="translate(96)"><path d="M0 8l16 8 16-8-16-8" fill="#926337"/><path d="M8 4l-8 4 16 8 16-8-8-4-4 2-6 2" fill="#79B030"/></g></g><g transform="translate(0 80)" stroke-width="2"><path d="M0 8l16 8 16-8-16-8" fill="#53A5B0"/><path d="M0 8l16 8 16-8-16-8" fill="#3475A5" transform="translate(32)"/><path d="M0 8l16 8 16-8-16-8" fill="#114590" transform="translate(64)"/><g transform="translate(96)" stroke-width="2"><path d="M0 8l16 8 16-8-16-8" fill="#ABA868"/><path d="M6 9l0 0M10 6l0 0M16 11l0 0M20 6l0 0M21 11l0 0M13 4l0 0M12 10l0 0" fill="none" stroke="#8F855B" stroke-linecap="round"/></g><g transform="translate(128)"><path d="M0 8l16 8 16-8-16-8" fill="#ABA868"/><path d="M8 6l0 0M10 11l0 0M14 3l0 0M19 6l0 0M12 9l0 0M21 12l0 0" fill="none" stroke="#8F855B" stroke-linecap="round"/></g></g></svg>