<svg xmlns="http://www.w3.org/2000/svg" width="13.4" height="19" stroke-width=".4" stroke-linejoin="round" stroke-linecap="round" fill="none"><defs><g id="head1"><path d="M-5.19-5.23l-.27 2.52.49 1.71-.98.78 1.25.39.86-.32q-.16.65.34 1.4l1.4.16 2.1-.66q1 .5 2.5.5l0-1.25 1 0 .24-3.07" fill="#A6557A"/><path d="M-5.21-5.5Q-5.31-4.23-4.08-2.91L-3.32-2.18l6.35-.09.54.83.52-.62.06-1.59-.36-.97.83-1-1.88-1.8-3.73-.1-3.64.58" fill="#8D698E"/><path fill="#C29285" d="M-4.17-3.28l-.26.72.8 1.53 2.67 1.05 2.33-.04 1.3-.57.17-2.49-.16-1.07-.45-.89-5 1.39-.09.91"/><path d="M2.64-4.12l-.64.18-.18-.77-1.26.86-1.5.3.13-.57 0 0-1.574.771.32-2.48 5.774-.151" fill="#8D698E"/><path d="M-3.38-2.84c-.89-1.33-1.56.44-.36 1.65C-2.62.07 1.45.52 2.73-.65q.24-1.86-.03-3.49" stroke="#140F0C"/><path d="M-3.15-4.01q-.57 1.5.36 4.15.81-.93.69-4.31" fill="#8D698E" stroke="#140F0C"/><g stroke="#694557" fill="#8D698E"><path d="M-.24-4.74q-1.04 1.25-2.18 1.42-.03-.86.51-1.54"/><path d="M1.99-5.2q-.74 1.39-2.93 1.66.2-1.11.77-1.97"/><path d="M2.97-4.52q-.409.474-1.01.6-.14-.63.03-1.28" fill="none"/></g><path d="M2.852-2.511Q2.99-1.97 3.61-1.34q1.17-1.36.11-3.31.5-.15.89-.89-.64-1.13-2.07-1.9-2.83-.41-6.57.31-.73.35-.95.87Q-5.32-5.69-5.51-3.55-5.46-2.22-4.84-1.2q-1 .5-1 1 1 .5 2 0-.16.95.34 1.45 1.34.42 3.5-.5.81.55 2.5.5.25-.75 0-1.25.76.11 1 0 .21-.74.04-1.41" stroke="#1F080F"/></g><g id="body1"><path d="M-2.88 6.1l2.89.32 2.59-.41-.38-3.14-1.46-2.89-2.04.31-.95 1.41-.66 2.93" fill="#F29C67"/><path d="M-2.13 1.5q2.91 1.3 3.97.3L.85.15l-2.11-.01-.64.87" fill="#BE714C"/><path d="M-1.09.19l1.58 1.3.56-.96-.4-.58" fill="#C29285"/><path d="M.68.08Q-.36.24-.97.05M.72.1Q-.46-.16-1.16.07q-1.59 1.44-1.78 5.98 2.99.72 5.57-.03-.05-3.88-1.9-5.87M1.05.57q-.1.45-.58.92Q-.66.74-1.09.16" stroke="#1D0F09"/></g><g id="eye1"><path d="M-.572.017l.245.661.942-.063.091-.664-.67-.581" fill="#EDFFEB"/><path d="M.39-.358l-.427.356.015.768.783-.32" fill="#479938"/><path d="M.344-.308c-.38.065-.509.721-.426.949" stroke="#175010"/><path d="M.009-.608c-.295.007-.808.703-.545 1.098q.515.476 1.188.014c.292-.198-.21-1.145-.611-1.116" stroke="#0A0E08" stroke-width=".3"/></g><g id="arm1"><path d="M-.819.6945l-.0915 2.724q.4055.4695 1.179.15l.3405-2.5245" fill="#C29285"/><path d="M-.6015-.3165l-.1485 1.5915 1.29.265L.71-.21l-.78-.41" fill="#F29C67"/><path d="M-.84 1.29q.6.25 1.37.24" stroke="#BE714C" stroke-width=".5" stroke-linecap="butt"/><path d="M-.6225-.1845q.525-.87 1.275.015.12.465-.345 3.57-.735.78-1.275-.045.0195-2.556.3375-3.5165" stroke="#0F0D0C"/></g><g id="hand1"><path d="M-.552-.06q-.663.672-.729 1.2915c-.0825 1.0005 2.245 1.1395 2.2905.1695q.0915-.9885-.588-1.596" stroke="#0F0D0C" fill="#C29285"/></g><g id="leg1"><path d="M-.786.026l.2 1.67-.04 2.23 1.491-.06-.16-.33.03-3.35" fill="#C29285"/><path d="M.79 1.65l-.02-2.71-1.58.23.14 2.52" fill="#363140"/><path d="M-.535 1.72q.33-.131.955-.035.207-.092.278-.031" stroke="#565E72" stroke-width=".5"/><path d="M-.819-.202q.27.93.16 4.12.46.08 1.55-.01.049-.222-.211-.342.113-.396.081-4.018" stroke="#0F0D0C"/></g></defs><g id="larm" transform="translate(7.8 10) rotate(-15)"><use id="lhandpoint" href="#hand1" x="-.38" y="3.31"/><use id="larmpoint" href="#arm1"/></g><g><use id="headpoint" href="#head1" x="6.63" y="8.2"/><use id="leyepoint" href="#eye1" x="5.86" y="5.89"/><use id="reyepoint" href="#eye1" x="8.1" y="5.7"/><path id="mouth" d="M6.1 7.21q.95.45 2.02-.06" stroke="#000" stroke-width=".2"/></g><use id="lleg" href="#leg1" x="7.93" y="14.57"/><use id="rleg" href="#leg1" x="5.37" y="14.57"/><use id="bodypoint" href="#body1" x="6.63" y="8.24"/><g id="rarm" transform="translate(5 10.2)"><use id="lhandpoint" href="#hand1" x="-.38" y="3.31"/><use id="larmpoint" href="#arm1"/></g></svg>